<mxfile host="app.diagrams.net" modified="2024-01-24T07:05:15.369Z" agent="Mozilla/5.0 (Windows NT 10.0; Win64; x64) AppleWebKit/537.36 (KHTML, like Gecko) Chrome/120.0.0.0 Safari/537.36 Edg/120.0.0.0" etag="xHMBJaOEVtHbuj2P_9-q" version="23.0.0" type="github">
  <diagram name="Page-1" id="2YBvvXClWsGukQMizWep">
    <mxGraphModel dx="1379" dy="756" grid="1" gridSize="10" guides="1" tooltips="1" connect="1" arrows="1" fold="1" page="1" pageScale="1" pageWidth="1100" pageHeight="850" math="0" shadow="0">
      <root>
        <mxCell id="0" />
        <mxCell id="1" parent="0" />
        <mxCell id="jEiSINPsbxnK8EgtZKj--68" style="edgeStyle=orthogonalEdgeStyle;rounded=0;orthogonalLoop=1;jettySize=auto;html=1;" edge="1" parent="1" source="jEiSINPsbxnK8EgtZKj--65" target="jEiSINPsbxnK8EgtZKj--43">
          <mxGeometry relative="1" as="geometry" />
        </mxCell>
        <mxCell id="jEiSINPsbxnK8EgtZKj--71" style="edgeStyle=orthogonalEdgeStyle;rounded=0;orthogonalLoop=1;jettySize=auto;html=1;exitX=1;exitY=0.5;exitDx=0;exitDy=0;exitPerimeter=0;entryX=0;entryY=0.5;entryDx=0;entryDy=0;" edge="1" parent="1" source="jEiSINPsbxnK8EgtZKj--65" target="jEiSINPsbxnK8EgtZKj--69">
          <mxGeometry relative="1" as="geometry" />
        </mxCell>
        <mxCell id="jEiSINPsbxnK8EgtZKj--65" value="" style="rounded=0;whiteSpace=wrap;html=1;fillColor=none;dashed=1;dashPattern=8 8;points=[[0,0,0,0,0],[0,0.25,0,0,0],[0,0.5,0,0,0],[0,0.75,0,0,0],[0,1,0,0,0],[0.25,0,0,0,0],[0.25,1,0,0,0],[0.5,0,0,0,0],[0.5,1,0,0,0],[0.75,0,0,0,0],[0.75,1,0,0,0],[1,0,0,0,0],[1,0.25,0,0,0],[1,0.38,0,0,0],[1,0.5,0,0,0],[1,0.75,0,0,0],[1,1,0,0,0]];editable=1;movable=1;resizable=1;rotatable=1;deletable=1;locked=0;connectable=1;" vertex="1" parent="1">
          <mxGeometry x="30" y="220" width="410" height="480" as="geometry" />
        </mxCell>
        <mxCell id="jEiSINPsbxnK8EgtZKj--3" value="" style="edgeStyle=orthogonalEdgeStyle;rounded=0;orthogonalLoop=1;jettySize=auto;html=1;exitX=0.5;exitY=1;exitDx=0;exitDy=0;" edge="1" parent="1" source="jEiSINPsbxnK8EgtZKj--55" target="jEiSINPsbxnK8EgtZKj--2">
          <mxGeometry relative="1" as="geometry" />
        </mxCell>
        <mxCell id="jEiSINPsbxnK8EgtZKj--56" style="edgeStyle=none;rounded=0;orthogonalLoop=1;jettySize=auto;html=1;exitX=0.5;exitY=1;exitDx=0;exitDy=0;entryX=0.5;entryY=0;entryDx=0;entryDy=0;shape=link;" edge="1" parent="1" source="jEiSINPsbxnK8EgtZKj--1" target="jEiSINPsbxnK8EgtZKj--55">
          <mxGeometry relative="1" as="geometry" />
        </mxCell>
        <mxCell id="jEiSINPsbxnK8EgtZKj--1" value="App Start" style="rounded=0;whiteSpace=wrap;html=1;" vertex="1" parent="1">
          <mxGeometry x="80" y="40" width="80" height="60" as="geometry" />
        </mxCell>
        <mxCell id="jEiSINPsbxnK8EgtZKj--5" value="" style="edgeStyle=orthogonalEdgeStyle;rounded=0;orthogonalLoop=1;jettySize=auto;html=1;" edge="1" parent="1" source="jEiSINPsbxnK8EgtZKj--2" target="jEiSINPsbxnK8EgtZKj--4">
          <mxGeometry relative="1" as="geometry">
            <Array as="points">
              <mxPoint x="220" y="270" />
            </Array>
          </mxGeometry>
        </mxCell>
        <mxCell id="jEiSINPsbxnK8EgtZKj--16" style="edgeStyle=orthogonalEdgeStyle;rounded=0;orthogonalLoop=1;jettySize=auto;html=1;entryX=0.5;entryY=0;entryDx=0;entryDy=0;" edge="1" parent="1" source="jEiSINPsbxnK8EgtZKj--2" target="jEiSINPsbxnK8EgtZKj--14">
          <mxGeometry relative="1" as="geometry" />
        </mxCell>
        <mxCell id="jEiSINPsbxnK8EgtZKj--2" value="Is OBS open?" style="rounded=0;whiteSpace=wrap;html=1;" vertex="1" parent="1">
          <mxGeometry x="60" y="240" width="120" height="60" as="geometry" />
        </mxCell>
        <mxCell id="jEiSINPsbxnK8EgtZKj--10" style="edgeStyle=orthogonalEdgeStyle;rounded=0;orthogonalLoop=1;jettySize=auto;html=1;exitX=0.5;exitY=1;exitDx=0;exitDy=0;" edge="1" parent="1" source="jEiSINPsbxnK8EgtZKj--4" target="jEiSINPsbxnK8EgtZKj--9">
          <mxGeometry relative="1" as="geometry">
            <Array as="points" />
          </mxGeometry>
        </mxCell>
        <mxCell id="jEiSINPsbxnK8EgtZKj--4" value="Try Connect" style="whiteSpace=wrap;html=1;rounded=0;" vertex="1" parent="1">
          <mxGeometry x="260" y="240" width="120" height="60" as="geometry" />
        </mxCell>
        <mxCell id="jEiSINPsbxnK8EgtZKj--6" value="Yes" style="text;html=1;strokeColor=none;fillColor=none;align=center;verticalAlign=middle;whiteSpace=wrap;rounded=0;" vertex="1" parent="1">
          <mxGeometry x="190" y="240" width="60" height="30" as="geometry" />
        </mxCell>
        <mxCell id="jEiSINPsbxnK8EgtZKj--23" style="edgeStyle=orthogonalEdgeStyle;rounded=0;orthogonalLoop=1;jettySize=auto;html=1;exitX=0.5;exitY=1;exitDx=0;exitDy=0;entryX=0.5;entryY=0;entryDx=0;entryDy=0;" edge="1" parent="1" source="jEiSINPsbxnK8EgtZKj--9" target="jEiSINPsbxnK8EgtZKj--21">
          <mxGeometry relative="1" as="geometry" />
        </mxCell>
        <mxCell id="jEiSINPsbxnK8EgtZKj--9" value="Is connection&lt;br&gt;successful?" style="whiteSpace=wrap;html=1;rounded=0;" vertex="1" parent="1">
          <mxGeometry x="260" y="400" width="120" height="60" as="geometry" />
        </mxCell>
        <mxCell id="jEiSINPsbxnK8EgtZKj--11" value="Yes" style="text;html=1;strokeColor=none;fillColor=none;align=center;verticalAlign=middle;whiteSpace=wrap;rounded=0;" vertex="1" parent="1">
          <mxGeometry x="370" y="395" width="60" height="30" as="geometry" />
        </mxCell>
        <mxCell id="jEiSINPsbxnK8EgtZKj--13" value="No" style="text;html=1;strokeColor=none;fillColor=none;align=center;verticalAlign=middle;whiteSpace=wrap;rounded=0;" vertex="1" parent="1">
          <mxGeometry x="50" y="310" width="60" height="30" as="geometry" />
        </mxCell>
        <mxCell id="jEiSINPsbxnK8EgtZKj--20" style="edgeStyle=orthogonalEdgeStyle;rounded=0;orthogonalLoop=1;jettySize=auto;html=1;exitX=1;exitY=0.5;exitDx=0;exitDy=0;entryX=0.25;entryY=1;entryDx=0;entryDy=0;" edge="1" parent="1" source="jEiSINPsbxnK8EgtZKj--14" target="jEiSINPsbxnK8EgtZKj--4">
          <mxGeometry relative="1" as="geometry">
            <Array as="points">
              <mxPoint x="290" y="370" />
            </Array>
          </mxGeometry>
        </mxCell>
        <mxCell id="jEiSINPsbxnK8EgtZKj--14" value="Open OBS" style="rounded=0;whiteSpace=wrap;html=1;" vertex="1" parent="1">
          <mxGeometry x="60" y="340" width="120" height="60" as="geometry" />
        </mxCell>
        <mxCell id="jEiSINPsbxnK8EgtZKj--26" style="edgeStyle=orthogonalEdgeStyle;rounded=0;orthogonalLoop=1;jettySize=auto;html=1;entryX=0.5;entryY=0;entryDx=0;entryDy=0;" edge="1" parent="1" source="jEiSINPsbxnK8EgtZKj--21" target="jEiSINPsbxnK8EgtZKj--25">
          <mxGeometry relative="1" as="geometry" />
        </mxCell>
        <mxCell id="jEiSINPsbxnK8EgtZKj--21" value="Check OBS websocket settings&lt;br&gt;(Show user a guide)" style="rounded=0;whiteSpace=wrap;html=1;" vertex="1" parent="1">
          <mxGeometry x="245" y="500" width="150" height="60" as="geometry" />
        </mxCell>
        <mxCell id="jEiSINPsbxnK8EgtZKj--24" value="No" style="text;html=1;strokeColor=none;fillColor=none;align=center;verticalAlign=middle;whiteSpace=wrap;rounded=0;" vertex="1" parent="1">
          <mxGeometry x="260" y="470" width="60" height="30" as="geometry" />
        </mxCell>
        <mxCell id="jEiSINPsbxnK8EgtZKj--27" style="edgeStyle=orthogonalEdgeStyle;rounded=0;orthogonalLoop=1;jettySize=auto;html=1;exitX=0;exitY=0.5;exitDx=0;exitDy=0;entryX=0.25;entryY=1;entryDx=0;entryDy=0;" edge="1" parent="1" source="jEiSINPsbxnK8EgtZKj--25" target="jEiSINPsbxnK8EgtZKj--4">
          <mxGeometry relative="1" as="geometry">
            <Array as="points">
              <mxPoint x="210" y="640" />
              <mxPoint x="210" y="370" />
              <mxPoint x="290" y="370" />
            </Array>
          </mxGeometry>
        </mxCell>
        <mxCell id="jEiSINPsbxnK8EgtZKj--25" value="Reconnect manually (button)" style="rounded=0;whiteSpace=wrap;html=1;" vertex="1" parent="1">
          <mxGeometry x="230" y="610" width="180" height="60" as="geometry" />
        </mxCell>
        <mxCell id="jEiSINPsbxnK8EgtZKj--77" style="edgeStyle=orthogonalEdgeStyle;rounded=0;orthogonalLoop=1;jettySize=auto;html=1;entryX=0;entryY=0.5;entryDx=0;entryDy=0;" edge="1" parent="1" source="jEiSINPsbxnK8EgtZKj--42" target="jEiSINPsbxnK8EgtZKj--75">
          <mxGeometry relative="1" as="geometry" />
        </mxCell>
        <mxCell id="jEiSINPsbxnK8EgtZKj--78" value="" style="edgeStyle=orthogonalEdgeStyle;rounded=0;orthogonalLoop=1;jettySize=auto;html=1;" edge="1" parent="1" source="jEiSINPsbxnK8EgtZKj--42" target="jEiSINPsbxnK8EgtZKj--45">
          <mxGeometry relative="1" as="geometry" />
        </mxCell>
        <mxCell id="jEiSINPsbxnK8EgtZKj--42" value="Is within &lt;br&gt;operating time?" style="rounded=0;whiteSpace=wrap;html=1;" vertex="1" parent="1">
          <mxGeometry x="700" y="436.25" width="140" height="47.5" as="geometry" />
        </mxCell>
        <mxCell id="jEiSINPsbxnK8EgtZKj--73" style="edgeStyle=orthogonalEdgeStyle;rounded=0;orthogonalLoop=1;jettySize=auto;html=1;exitX=0.5;exitY=1;exitDx=0;exitDy=0;entryX=0;entryY=0.5;entryDx=0;entryDy=0;" edge="1" parent="1" source="jEiSINPsbxnK8EgtZKj--43" target="jEiSINPsbxnK8EgtZKj--42">
          <mxGeometry relative="1" as="geometry">
            <mxPoint x="670" y="460" as="targetPoint" />
            <Array as="points">
              <mxPoint x="565" y="460" />
              <mxPoint x="670" y="460" />
            </Array>
          </mxGeometry>
        </mxCell>
        <mxCell id="jEiSINPsbxnK8EgtZKj--79" style="edgeStyle=orthogonalEdgeStyle;rounded=0;orthogonalLoop=1;jettySize=auto;html=1;entryX=0;entryY=0.5;entryDx=0;entryDy=0;" edge="1" parent="1" source="jEiSINPsbxnK8EgtZKj--43" target="jEiSINPsbxnK8EgtZKj--75">
          <mxGeometry relative="1" as="geometry">
            <Array as="points">
              <mxPoint x="890" y="370" />
              <mxPoint x="890" y="460" />
            </Array>
          </mxGeometry>
        </mxCell>
        <mxCell id="jEiSINPsbxnK8EgtZKj--43" value="Is Start?" style="rounded=0;whiteSpace=wrap;html=1;" vertex="1" parent="1">
          <mxGeometry x="530" y="340" width="70" height="60" as="geometry" />
        </mxCell>
        <mxCell id="jEiSINPsbxnK8EgtZKj--45" value="Stop recording" style="rounded=0;whiteSpace=wrap;html=1;" vertex="1" parent="1">
          <mxGeometry x="700" y="520" width="140" height="60" as="geometry" />
        </mxCell>
        <mxCell id="jEiSINPsbxnK8EgtZKj--54" value="No" style="text;html=1;strokeColor=none;fillColor=none;align=center;verticalAlign=middle;whiteSpace=wrap;rounded=0;" vertex="1" parent="1">
          <mxGeometry x="530" y="580" width="35" height="30" as="geometry" />
        </mxCell>
        <mxCell id="jEiSINPsbxnK8EgtZKj--55" value="Timer Tick" style="rounded=0;whiteSpace=wrap;html=1;" vertex="1" parent="1">
          <mxGeometry x="60" y="140" width="120" height="60" as="geometry" />
        </mxCell>
        <mxCell id="jEiSINPsbxnK8EgtZKj--72" style="edgeStyle=orthogonalEdgeStyle;rounded=0;orthogonalLoop=1;jettySize=auto;html=1;exitX=0.5;exitY=1;exitDx=0;exitDy=0;entryX=0;entryY=0.5;entryDx=0;entryDy=0;jumpStyle=arc;" edge="1" parent="1" source="jEiSINPsbxnK8EgtZKj--69" target="jEiSINPsbxnK8EgtZKj--42">
          <mxGeometry relative="1" as="geometry">
            <Array as="points">
              <mxPoint x="565" y="600" />
              <mxPoint x="650" y="600" />
              <mxPoint x="650" y="460" />
            </Array>
          </mxGeometry>
        </mxCell>
        <mxCell id="jEiSINPsbxnK8EgtZKj--76" style="edgeStyle=orthogonalEdgeStyle;rounded=0;orthogonalLoop=1;jettySize=auto;html=1;exitX=1;exitY=0.5;exitDx=0;exitDy=0;entryX=0;entryY=0.5;entryDx=0;entryDy=0;jumpStyle=arc;jumpSize=8;" edge="1" parent="1" source="jEiSINPsbxnK8EgtZKj--69" target="jEiSINPsbxnK8EgtZKj--45">
          <mxGeometry relative="1" as="geometry" />
        </mxCell>
        <mxCell id="jEiSINPsbxnK8EgtZKj--69" value="Is End?" style="rounded=0;whiteSpace=wrap;html=1;" vertex="1" parent="1">
          <mxGeometry x="530" y="520" width="70" height="60" as="geometry" />
        </mxCell>
        <mxCell id="jEiSINPsbxnK8EgtZKj--74" value="No" style="text;html=1;strokeColor=none;fillColor=none;align=center;verticalAlign=middle;whiteSpace=wrap;rounded=0;" vertex="1" parent="1">
          <mxGeometry x="532.5" y="400" width="35" height="30" as="geometry" />
        </mxCell>
        <mxCell id="jEiSINPsbxnK8EgtZKj--75" value="Start/Keep recording" style="rounded=0;whiteSpace=wrap;html=1;" vertex="1" parent="1">
          <mxGeometry x="920" y="430" width="130" height="60" as="geometry" />
        </mxCell>
        <mxCell id="jEiSINPsbxnK8EgtZKj--80" value="Yes" style="text;html=1;strokeColor=none;fillColor=none;align=center;verticalAlign=middle;whiteSpace=wrap;rounded=0;" vertex="1" parent="1">
          <mxGeometry x="840" y="436.25" width="40" height="30" as="geometry" />
        </mxCell>
        <mxCell id="jEiSINPsbxnK8EgtZKj--81" value="Yes" style="text;html=1;strokeColor=none;fillColor=none;align=center;verticalAlign=middle;whiteSpace=wrap;rounded=0;" vertex="1" parent="1">
          <mxGeometry x="590" y="340" width="60" height="30" as="geometry" />
        </mxCell>
        <mxCell id="jEiSINPsbxnK8EgtZKj--82" value="No" style="text;html=1;strokeColor=none;fillColor=none;align=center;verticalAlign=middle;whiteSpace=wrap;rounded=0;" vertex="1" parent="1">
          <mxGeometry x="730" y="483.75" width="35" height="30" as="geometry" />
        </mxCell>
        <mxCell id="jEiSINPsbxnK8EgtZKj--84" value="Yes" style="text;html=1;strokeColor=none;fillColor=none;align=center;verticalAlign=middle;whiteSpace=wrap;rounded=0;" vertex="1" parent="1">
          <mxGeometry x="600" y="520" width="40" height="30" as="geometry" />
        </mxCell>
      </root>
    </mxGraphModel>
  </diagram>
</mxfile>
